<svg width="70" height="70" viewBox="0 0 70 70" fill="none" xmlns="http://www.w3.org/2000/svg">
<path d="M0 35.4688C0.592217 35.5521 1.25212 35.5938 1.9797 35.5938C5.7868 35.5938 9.17936 34.1562 12.1574 31.2812C10.3807 31.2396 8.79019 30.5677 7.38579 29.2656C5.98139 27.9635 5.01692 26.3021 4.49239 24.2812C5.05076 24.3854 5.56684 24.4375 6.04061 24.4375C6.76819 24.4375 7.48731 24.3229 8.19797 24.0938C6.30288 23.6146 4.7335 22.4531 3.48985 20.6094C2.24619 18.7656 1.62437 16.625 1.62437 14.1875V14.0625C2.77496 14.8542 4.01015 15.2812 5.32995 15.3438C4.2132 14.4271 3.32487 13.2292 2.66497 11.75C2.00508 10.2708 1.67513 8.66667 1.67513 6.9375C1.67513 5.10417 2.04738 3.40625 2.79188 1.84375C4.83926 4.94792 7.3308 7.43229 10.2665 9.29688C13.2022 11.1615 16.3452 12.1979 19.6954 12.4062C19.5601 11.6146 19.4924 10.8438 19.4924 10.0938C19.4924 7.30208 20.2919 4.92188 21.8909 2.95312C23.4898 0.984375 25.423 0 27.6904 0C30.0592 0 32.0558 1.0625 33.6802 3.1875C35.5245 2.75 37.2589 1.9375 38.8832 0.75C38.2572 3.14583 37.0558 5 35.2792 6.3125C36.8528 6.10417 38.4264 5.58333 40 4.75C38.8663 6.79167 37.4958 8.53125 35.8883 9.96875C35.9052 10.2604 35.9137 10.6979 35.9137 11.2812C35.9137 13.9896 35.5922 16.6927 34.9492 19.3906C34.3063 22.0885 33.3291 24.6771 32.0178 27.1562C30.7064 29.6354 29.1455 31.8281 27.335 33.7344C25.5245 35.6406 23.3418 37.1615 20.7868 38.2969C18.2318 39.4323 15.4992 40 12.5888 40C8.00338 40 3.80711 38.4896 0 35.4688Z" fill="white"/>
</svg>
